HIERARCHY
ROOT Hips
{
	OFFSET 0.000000 0.000000 0.000000
	CHANNELS 6 Xposition Yposition Zposition Zrotation Yrotation Xrotation 
	JOINT LHipJoint
	{
		OFFSET 0.000000 0.000000 0.000000
		CHANNELS 3 Zrotation Yrotation Xrotation
		JOINT LeftUpLeg
		{
			OFFSET 1.363060 -1.794630 0.839290
			CHANNELS 3 Zrotation Yrotation Xrotation
			JOINT LeftLeg
			{
				OFFSET 2.448110 -6.726130 0.000000
				CHANNELS 3 Zrotation Yrotation Xrotation
				JOINT LeftFoot
				{
					OFFSET 2.562200 -7.039590 0.000000
					CHANNELS 3 Zrotation Yrotation Xrotation
					JOINT LeftToeBase
					{
						OFFSET 0.157640 -0.433110 2.322550
						CHANNELS 3 Zrotation Yrotation Xrotation
						End Site
						{
							OFFSET 0.000000 0.000000 0.000000
						}
					}
				}
			}
		}
	}
	JOINT RHipJoint
	{
		OFFSET 0.000000 0.000000 0.000000
		CHANNELS 3 Zrotation Yrotation Xrotation
		JOINT RightUpLeg
		{
			OFFSET -1.305520 -1.794630 0.839290
			CHANNELS 3 Zrotation Yrotation Xrotation
			JOINT RightLeg
			{
				OFFSET -2.542530 -6.985550 0.000000
				CHANNELS 3 Zrotation Yrotation Xrotation
				JOINT RightFoot
				{
					OFFSET -2.568260 -7.056230 0.000000
					CHANNELS 3 Zrotation Yrotation Xrotation
					JOINT RightToeBase
					{
						OFFSET -0.164730 -0.452590 2.363150
						CHANNELS 3 Zrotation Yrotation Xrotation
						End Site
						{
							OFFSET 0.000000 0.000000 0.000000
						}
					}
				}
			}
		}
	}
	JOINT LowerBack
	{
		OFFSET 0.000000 0.000000 0.000000
		CHANNELS 3 Zrotation Yrotation Xrotation
		JOINT Spine
		{
			OFFSET 0.028270 2.035590 -0.193380
			CHANNELS 3 Zrotation Yrotation Xrotation
			JOINT Spine1
			{
				OFFSET 0.056720 2.048850 -0.042750
				CHANNELS 3 Zrotation Yrotation Xrotation
				JOINT Neck
				{
					OFFSET 0.000000 0.000000 0.000000
					CHANNELS 3 Zrotation Yrotation Xrotation
					JOINT Neck1
					{
						OFFSET -0.054170 1.746240 0.172020
						CHANNELS 3 Zrotation Yrotation Xrotation
						JOINT Head
						{
							OFFSET 0.104070 1.761360 -0.123970
							CHANNELS 3 Zrotation Yrotation Xrotation
							End Site
							{
								OFFSET 0.000000 0.000000 0.000000
							}
						}
					}
				}
				JOINT LeftShoulder
				{
					OFFSET 0.000000 0.000000 0.000000
					CHANNELS 3 Zrotation Yrotation Xrotation
					JOINT LeftArm
					{
						OFFSET 3.362410 1.200890 -0.311210
						CHANNELS 3 Zrotation Yrotation Xrotation
						JOINT LeftForeArm
						{
							OFFSET 4.983000 -0.000000 -0.000000
							CHANNELS 3 Zrotation Yrotation Xrotation
							JOINT LeftHand
							{
								OFFSET 3.483560 -0.000000 -0.000000
								CHANNELS 3 Zrotation Yrotation Xrotation
								JOINT LeftFingerBase
								{
									OFFSET 0.000000 0.000000 0.000000
									CHANNELS 3 Zrotation Yrotation Xrotation
									JOINT LeftHandIndex1
									{
										OFFSET 0.715260 -0.000000 -0.000000
										CHANNELS 3 Zrotation Yrotation Xrotation
										End Site
										{
											OFFSET 0.000000 0.000000 0.000000
										}
									}
								}
								JOINT LThumb
								{
									OFFSET 0.000000 0.000000 0.000000
									CHANNELS 3 Zrotation Yrotation Xrotation
									End Site
									{
										OFFSET 0.000000 0.000000 0.000000
									}
								}
							}
						}
					}
				}
				JOINT RightShoulder
				{
					OFFSET 0.000000 0.000000 0.000000
					CHANNELS 3 Zrotation Yrotation Xrotation
					JOINT RightArm
					{
						OFFSET -3.136600 1.374050 -0.404650
						CHANNELS 3 Zrotation Yrotation Xrotation
						JOINT RightForeArm
						{
							OFFSET -5.241900 -0.000000 -0.000000
							CHANNELS 3 Zrotation Yrotation Xrotation
							JOINT RightHand
							{
								OFFSET -3.444170 -0.000000 -0.000000
								CHANNELS 3 Zrotation Yrotation Xrotation
								JOINT RightFingerBase
								{
									OFFSET 0.000000 0.000000 0.000000
									CHANNELS 3 Zrotation Yrotation Xrotation
									JOINT RightHandIndex1
									{
										OFFSET -0.622530 -0.000000 -0.000000
										CHANNELS 3 Zrotation Yrotation Xrotation
										End Site
										{
											OFFSET 0.000000 0.000000 0.000000
										}
									}
								}
								JOINT RThumb
								{
									OFFSET 0.000000 0.000000 0.000000
									CHANNELS 3 Zrotation Yrotation Xrotation
									End Site
									{
										OFFSET 0.000000 0.000000 0.000000
									}
								}
							}
						}
					}
				}
			}
		}
	}
}
MOTION
Frames: 11
Frame Time: 0.008333
3.507618 16.767223 -1.240083 -89.465024 87.938504 -92.148265 -10.751980 1.024077 -0.184744 -20.027762 16.315420 -27.092538 -2.206997 0.120092 21.114228 3.090766 16.197855 -14.384236 178.081900 -0.000001 -1.416700 10.419995 -3.151819 -2.475720 -13.734877 -20.460411 5.927241 -0.854041 -2.452857 37.661836 -2.184697 -3.302473 36.514264 -1.293100 -0.000000 -71.949500 0.978400 0.862098 0.697819 0.095446 0.880590 -1.928370 -3.020692 0.824306 3.671998 6.768617 -15.402697 -10.375974 -0.297363 0.021382 -0.739277 0.000000 0.000000 0.000000 -3.990620 28.989149 1.892070 -86.145879 30.410945 -6.105915 -4.501030 -14.235141 -0.042408 -8.839813 14.344334 -1.120890 -0.064903 -0.169232 -0.000000 0.000000 0.000000 0.000000 0.000000 0.000000 0.000000 4.345419 -10.795434 0.757309 30.273855 9.624602 1.516421 1.692305 42.620982 0.012570 4.566277 4.885494 0.201026 0.002837 -0.149796 0.000000 0.000000 0.000000 0.000000 0.000000 0.000000 0.000000 
3.714126 16.705910 -1.295786 -96.064683 87.971338 -98.974009 -10.709382 1.145454 -0.327146 -20.153635 16.439996 -27.182631 -2.210680 0.344630 23.389103 3.028473 15.809058 -14.948865 177.926300 -0.000001 -3.047200 10.552534 -2.904502 -2.630748 -14.266254 -20.910356 4.838601 -0.959803 -2.535194 40.584697 -2.393346 -5.813273 35.449800 -2.862300 0.000001 -67.609900 0.629055 0.735532 1.006743 0.026112 0.783551 -1.885046 -3.044461 0.730554 3.625747 6.848069 -15.367282 -10.444282 -0.310880 0.021827 -0.759142 0.000000 0.000000 0.000000 -3.919506 28.750634 1.911736 -86.075430 29.815234 -5.600564 -4.494875 -14.451012 -0.042214 -9.079218 14.265529 -1.145190 -0.063353 -0.166541 -0.000000 0.000000 0.000000 0.000000 0.000000 0.000000 0.000000 4.450177 -10.763118 0.790622 30.340357 9.588777 1.199840 1.701448 42.572469 0.012668 4.488253 4.864560 0.196730 0.005117 -0.151024 0.000000 0.000000 0.000000 0.000000 0.000000 0.000000 0.000000 
3.917460 16.647834 -1.350967 -104.538285 87.981171 -107.612949 -10.641937 1.274659 -0.451004 -20.342735 16.485983 -27.236498 -2.220715 0.551771 25.524865 2.977543 15.424712 -15.629332 177.746699 0.000000 -4.373600 10.693734 -2.668017 -2.767599 -14.661123 -21.252215 3.606215 -1.060383 -2.642077 43.467373 -2.570388 -8.190996 33.759800 -4.241900 0.000000 -63.396000 0.282367 0.600579 1.278856 -0.042602 0.676702 -1.849301 -3.070036 0.626514 3.579825 6.912392 -15.345866 -10.494546 -0.334504 0.021113 -0.773645 0.000000 0.000000 0.000000 -3.828820 28.458995 1.917019 -85.891585 29.064291 -5.184749 -4.486307 -14.575999 -0.041577 -9.182305 14.068094 -1.142080 -0.062984 -0.162485 -0.000000 0.000000 0.000000 0.000000 0.000000 0.000000 0.000000 4.572873 -10.752529 0.812619 30.528209 9.489731 0.882388 1.712146 42.560405 0.012715 4.367823 4.847896 0.190740 0.008187 -0.152177 0.000000 0.000000 0.000000 0.000000 0.000000 0.000000 0.000000 
4.117838 16.594908 -1.406338 -114.736717 87.929510 -117.908183 -10.550676 1.404298 -0.549696 -20.582108 16.411803 -27.220886 -2.233028 0.734733 27.468524 2.944926 15.078166 -16.426865 177.540299 -0.000000 -5.441900 10.843416 -2.452729 -2.878029 -14.893840 -21.459347 2.227528 -1.154808 -2.773215 46.262548 -2.709201 -10.264690 31.546769 -5.288900 0.000000 -59.466800 -0.049089 0.459844 1.500301 -0.108207 0.562319 -1.823393 -3.098213 0.514375 3.535378 6.961820 -15.342215 -10.523570 -0.368371 0.019157 -0.781812 0.000000 0.000000 0.000000 -3.718724 28.115200 1.906145 -85.592646 28.161700 -4.898989 -4.475044 -14.607225 -0.040476 -9.120722 13.759928 -1.108963 -0.063947 -0.157065 -0.000000 0.000000 0.000000 0.000000 0.000000 0.000000 0.000000 4.715177 -10.768252 0.822238 30.838994 9.309884 0.569846 1.724769 42.584717 0.012706 4.203197 4.841931 0.183151 0.012060 -0.153231 0.000000 0.000000 0.000000 0.000000 0.000000 0.000000 0.000000 
4.315563 16.548723 -1.462395 -126.002030 87.780950 -129.201279 -10.441246 1.526120 -0.621236 -20.864181 16.195561 -27.097135 -2.243874 0.887505 29.170252 2.934055 14.793940 -17.315531 177.310600 0.000000 -6.209100 10.997974 -2.267062 -2.956417 -14.961012 -21.517956 0.715469 -1.239813 -2.926966 48.920824 -2.805132 -11.925402 28.935046 -5.932000 -0.000000 -55.882400 -0.364004 0.312938 1.664970 -0.170537 0.440213 -1.807757 -3.129393 0.393964 3.494541 7.000022 -15.362086 -10.530690 -0.412011 0.015981 -0.783455 0.000000 0.000000 0.000000 -3.586067 27.727215 1.878323 -85.179583 27.111877 -4.778331 -4.461258 -14.549001 -0.038912 -8.876064 13.348130 -1.045835 -0.066345 -0.150286 -0.000000 0.000000 0.000000 0.000000 0.000000 0.000000 0.000000 4.881924 -10.818058 0.818556 31.269883 9.045525 0.278036 1.739591 42.636558 0.012630 3.990294 4.854426 0.174165 0.016755 -0.154124 0.000000 0.000000 0.000000 0.000000 0.000000 0.000000 0.000000 
4.510914 16.510608 -1.519988 -137.024542 87.514741 -140.184797 -10.330493 1.630352 -0.665801 -21.173658 15.839430 -26.843007 -2.252309 1.006334 30.597074 2.946016 14.582290 -18.279739 177.057400 -0.000000 -6.822300 11.141311 -2.117568 -2.997163 -14.855261 -21.410134 -0.913377 -1.312159 -3.097975 51.390570 -2.857258 -13.142200 26.066525 -6.181200 -0.000001 -52.726600 -0.657644 0.163035 1.768597 -0.229715 0.312459 -1.803061 -3.163231 0.267295 3.456599 7.024579 -15.398211 -10.513810 -0.464717 0.011599 -0.777992 0.000000 0.000000 0.000000 -3.440091 27.300233 1.833245 -84.654321 25.933403 -4.836585 -4.444348 -14.431080 -0.036902 -8.447231 12.837661 -0.955697 -0.070092 -0.142191 -0.000000 0.000000 0.000000 0.000000 0.000000 0.000000 0.000000 5.065496 -10.893677 0.801625 31.824418 8.676559 0.005594 1.757691 42.711208 0.012498 3.737005 4.885583 0.163882 0.022164 -0.154755 0.000000 0.000000 0.000000 0.000000 0.000000 0.000000 0.000000 
4.704187 16.481391 -1.579645 -146.748473 87.145927 -149.814592 -10.231706 1.715553 -0.685768 -21.500673 15.361534 -26.430809 -2.260101 1.091632 31.712836 2.979004 14.449858 -19.273501 176.788601 -0.000000 -7.251000 11.259853 -1.999778 -3.000817 -14.597817 -21.129827 -2.625800 -1.372018 -3.276008 53.624958 -2.866395 -13.922621 23.066397 -6.089000 0.000000 -49.961200 -0.936290 0.016173 1.816357 -0.288745 0.184125 -1.807434 -3.200045 0.139498 3.423246 7.039285 -15.454767 -10.474986 -0.525066 0.006174 -0.766107 0.000000 0.000000 0.000000 -3.283292 26.852324 1.770949 -84.023226 24.640745 -5.079744 -4.424495 -14.285076 -0.034506 -7.848059 12.231332 -0.844149 -0.075050 -0.132879 -0.000000 0.000000 0.000000 0.000000 0.000000 0.000000 0.000000 5.267834 -10.997399 0.772161 32.492932 8.217074 -0.226846 1.779738 42.788086 0.012310 3.442899 4.939108 0.152303 0.028256 -0.155018 0.000000 0.000000 0.000000 0.000000 0.000000 0.000000 0.000000 
4.895699 16.461571 -1.642159 -154.530082 86.710395 -157.460866 -10.150606 1.785516 -0.685540 -21.822849 14.799051 -25.848850 -2.270817 1.146510 32.495808 3.029474 14.392048 -20.260618 176.511300 -0.000000 -7.580600 11.347080 -1.903872 -2.968627 -14.198041 -20.666953 -4.383981 -1.420901 -3.445952 55.577814 -2.837825 -14.321160 20.064001 -5.747200 -0.000001 -47.666700 -1.184500 -0.117230 1.815211 -0.345722 0.064051 -1.819797 -3.240543 0.019375 3.392150 7.040508 -15.516156 -10.413047 -0.591873 -0.000215 -0.747608 0.000000 0.000000 0.000000 -3.127646 26.394790 1.692568 -83.294158 23.265551 -5.485354 -4.401117 -14.167076 -0.031801 -7.111606 11.531179 -0.719193 -0.080892 -0.122517 -0.000000 0.000000 0.000000 0.000000 0.000000 0.000000 0.000000 5.475834 -11.107613 0.731656 33.277260 7.652674 -0.427871 1.807292 42.856576 0.012097 3.126052 5.008231 0.139727 0.034806 -0.154785 0.000000 0.000000 0.000000 0.000000 0.000000 0.000000 0.000000 
5.085772 16.451195 -1.707827 -160.458500 86.240479 -163.230317 -10.081980 1.845768 -0.671457 -22.124510 14.188982 -25.083420 -2.285824 1.173446 32.928900 3.092217 14.399424 -21.190634 176.237900 0.000000 -7.796800 11.408432 -1.819681 -2.905108 -13.681738 -20.033723 -6.141304 -1.457662 -3.596278 57.212687 -2.777410 -14.398841 17.151948 -5.244600 0.000000 -45.753200 -1.389964 -0.234307 1.776788 -0.397812 -0.044927 -1.836884 -3.285515 -0.090078 3.366081 7.034800 -15.595593 -10.334097 -0.663165 -0.007275 -0.724390 0.000000 0.000000 0.000000 -2.975565 25.950568 1.599228 -82.479143 21.827480 -6.028093 -4.374967 -14.123839 -0.028886 -6.284129 10.740521 -0.589830 -0.087302 -0.111288 -0.000000 0.000000 0.000000 0.000000 0.000000 0.000000 0.000000 5.696413 -11.236888 0.681692 34.151572 7.029186 -0.563635 1.840787 42.881368 0.011860 2.784937 5.093190 0.126053 0.041791 -0.153919 0.000000 0.000000 0.000000 0.000000 0.000000 0.000000 0.000000 
5.274544 16.449994 -1.777698 -164.543043 85.765525 -167.144759 -10.024913 1.896821 -0.651807 -22.371073 13.580248 -24.145755 -2.304362 1.174351 33.020076 3.160297 14.450545 -22.028899 175.980301 0.000000 -7.949700 11.446599 -1.743763 -2.810031 -13.038594 -19.224952 -7.862668 -1.479719 -3.717420 58.497175 -2.696770 -14.256641 14.438936 -4.682200 -0.000001 -44.413000 -1.509612 -0.329825 1.707769 -0.435558 -0.138970 -1.859365 -3.334302 -0.185110 3.337373 7.006386 -15.649331 -10.232465 -0.738100 -0.015037 -0.695016 0.000000 0.000000 0.000000 -2.845988 25.513939 1.495305 -81.589692 20.379478 -6.609640 -4.344670 -14.240912 -0.025859 -5.425588 9.871029 -0.465961 -0.093761 -0.099512 -0.000000 0.000000 0.000000 0.000000 0.000000 0.000000 0.000000 5.893840 -11.334478 0.624074 35.132909 6.287164 -0.689254 1.882443 42.869925 0.011670 2.462970 5.175870 0.112780 0.048724 -0.152335 0.000000 0.000000 0.000000 0.000000 0.000000 0.000000 0.000000 
5.462464 16.457385 -1.851632 -167.313126 85.293246 -169.746010 -9.975064 1.940682 -0.631993 -22.561851 12.998802 -23.032433 -2.324814 1.150077 32.770823 3.226906 14.526170 -22.729481 175.754901 -0.000000 -8.011000 11.466536 -1.671961 -2.688738 -12.304810 -18.276066 -9.509517 -1.483502 -3.807253 59.417285 -2.603881 -13.964165 11.961596 -4.118100 -0.000000 -43.443200 -1.547490 -0.411708 1.618230 -0.458569 -0.224854 -1.883796 -3.386505 -0.272190 3.310973 6.966793 -15.702760 -10.117738 -0.814822 -0.023153 -0.662289 0.000000 0.000000 0.000000 -2.730806 25.102911 1.383046 -80.642165 18.940186 -7.189820 -4.312669 -14.556377 -0.022829 -4.592732 8.936953 -0.355087 -0.100044 -0.087430 -0.000000 0.000000 0.000000 0.000000 0.000000 0.000000 0.000000 6.086194 -11.430745 0.560360 36.183293 5.498601 -0.760093 1.932266 42.781556 0.011519 2.157160 5.254043 0.099607 0.055615 -0.149862 0.000000 0.000000 0.000000 0.000000 0.000000 0.000000 0.000000 
